HIERARCHY
ROOT hip
{
  OFFSET 45.3898 81.4154 206.629
  CHANNELS 6 Xposition Yposition Zposition Zrotation Xrotation Yrotation
  JOINT abdomen
  {
    OFFSET 0 20.6881 -0.73152
    CHANNELS 3 Zrotation Xrotation Yrotation
    JOINT chest
    {
      OFFSET 0 11.7043 -0.48768
      CHANNELS 3 Zrotation Xrotation Yrotation
      JOINT neck
      {
        OFFSET 0 22.1894 -2.19456
        CHANNELS 3 Zrotation Xrotation Yrotation
        JOINT head
        {
          OFFSET -0.24384 7.07133 1.2192
          CHANNELS 3 Zrotation Xrotation Yrotation
          JOINT leftEye
          {
            OFFSET 4.14528 8.04674 8.04672
            CHANNELS 3 Zrotation Xrotation Yrotation
            End Site
            {
              OFFSET 1 0 0
            }
          }
          JOINT rightEye
          {
            OFFSET -3.6576 8.04674 8.04672
            CHANNELS 3 Zrotation Xrotation Yrotation
            End Site
            {
              OFFSET 1 0 0
            }
          }
        }
      }
      JOINT rCollar
      {
        OFFSET -2.68224 19.2634 -4.8768
        CHANNELS 3 Zrotation Xrotation Yrotation
        JOINT rShldr
        {
          OFFSET -8.77824 -1.95073 1.46304
          CHANNELS 3 Zrotation Xrotation Yrotation
          JOINT rForeArm
          {
            OFFSET -28.1742 -1.7115 0.48768
            CHANNELS 3 Zrotation Xrotation Yrotation
            JOINT rHand
            {
              OFFSET -22.5879 0.773209 7.07136
              CHANNELS 3 Zrotation Xrotation Yrotation
              JOINT rThumb1
              {
                OFFSET -1.2192 -0.487915 3.41376
                CHANNELS 3 Zrotation Xrotation Yrotation
                JOINT rThumb2
                {
                  OFFSET -3.37035 -0.52449 3.41376
                  CHANNELS 3 Zrotation Xrotation Yrotation
                  End Site
                  {
                    OFFSET -1.78271 -1.18214 1.43049
                  }
                }
              }
              JOINT rIndex1
              {
                OFFSET -7.75947 0.938293 5.60832
                CHANNELS 3 Zrotation Xrotation Yrotation
                JOINT rIndex2
                {
                  OFFSET -2.54057 -0.884171 1.56538
                  CHANNELS 3 Zrotation Xrotation Yrotation
                  End Site
                  {
                    OFFSET -1.62519 -0.234802 1.16502
                  }
                }
              }
              JOINT rMid1
              {
                OFFSET -8.24714 1.18213 3.41376
                CHANNELS 3 Zrotation Xrotation Yrotation
                JOINT rMid2
                {
                  OFFSET -3.10165 -0.590103 1.0647
                  CHANNELS 3 Zrotation Xrotation Yrotation
                  End Site
                  {
                    OFFSET -2.48547 -0.328903 0.83742
                  }
                }
              }
              JOINT rRing1
              {
                OFFSET -8.82822 0.546677 1.51678
                CHANNELS 3 Zrotation Xrotation Yrotation
                JOINT rRing2
                {
                  OFFSET -2.60934 -0.819778 -0.0198488
                  CHANNELS 3 Zrotation Xrotation Yrotation
                  End Site
                  {
                    OFFSET -2.33842 -0.294052 0.168128
                  }
                }
              }
              JOINT rPinky1
              {
                OFFSET -8.27202 -0.0477905 -0.4584
                CHANNELS 3 Zrotation Xrotation Yrotation
                JOINT rPinky2
                {
                  OFFSET -1.82734 -0.647385 -0.700984
                  CHANNELS 3 Zrotation Xrotation Yrotation
                  End Site
                  {
                    OFFSET -1.69225 -0.51767 -0.607171
                  }
                }
              }
            }
          }
        }
      }
      JOINT lCollar
      {
        OFFSET 2.68224 19.2634 -4.8768
        CHANNELS 3 Zrotation Xrotation Yrotation
        JOINT lShldr
        {
          OFFSET 8.77824 -1.95073 1.46304
          CHANNELS 3 Zrotation Xrotation Yrotation
          JOINT lForeArm
          {
            OFFSET 28.1742 -1.7115 0.48768
            CHANNELS 3 Zrotation Xrotation Yrotation
            JOINT lHand
            {
              OFFSET 22.5879 0.773209 7.07136
              CHANNELS 3 Zrotation Xrotation Yrotation
              JOINT lThumb1
              {
                OFFSET 1.2192 -0.487915 3.41376
                CHANNELS 3 Zrotation Xrotation Yrotation
                JOINT lThumb2
                {
                  OFFSET 3.37035 -0.52449 3.41376
                  CHANNELS 3 Zrotation Xrotation Yrotation
                  End Site
                  {
                    OFFSET 1.78271 -1.18214 1.43049
                  }
                }
              }
              JOINT lIndex1
              {
                OFFSET 7.75947 0.938293 5.60832
                CHANNELS 3 Zrotation Xrotation Yrotation
                JOINT lIndex2
                {
                  OFFSET 2.54057 -0.884171 1.56538
                  CHANNELS 3 Zrotation Xrotation Yrotation
                  End Site
                  {
                    OFFSET 1.62519 -0.234802 1.16502
                  }
                }
              }
              JOINT lMid1
              {
                OFFSET 8.24714 1.18213 3.41376
                CHANNELS 3 Zrotation Xrotation Yrotation
                JOINT lMid2
                {
                  OFFSET 3.10165 -0.590103 1.0647
                  CHANNELS 3 Zrotation Xrotation Yrotation
                  End Site
                  {
                    OFFSET 2.48547 -0.328903 0.83742
                  }
                }
              }
              JOINT lRing1
              {
                OFFSET 8.82822 0.546677 1.51678
                CHANNELS 3 Zrotation Xrotation Yrotation
                JOINT lRing2
                {
                  OFFSET 2.60934 -0.819778 -0.0198488
                  CHANNELS 3 Zrotation Xrotation Yrotation
                  End Site
                  {
                    OFFSET 2.33842 -0.294052 0.168128
                  }
                }
              }
              JOINT lPinky1
              {
                OFFSET 8.27202 -0.0477905 -0.4584
                CHANNELS 3 Zrotation Xrotation Yrotation
                JOINT lPinky2
                {
                  OFFSET 1.82734 -0.647385 -0.700984
                  CHANNELS 3 Zrotation Xrotation Yrotation
                  End Site
                  {
                    OFFSET 1.69225 -0.51767 -0.607171
                  }
                }
              }
            }
          }
        }
      }
    }
  }
  JOINT rButtock
  {
    OFFSET -8.77824 4.35084 1.2192
    CHANNELS 3 Zrotation Xrotation Yrotation
    JOINT rThigh
    {
      OFFSET 0 -1.70687 -2.19456
      CHANNELS 3 Zrotation Xrotation Yrotation
      JOINT rShin
      {
        OFFSET 0 -36.8199 0.73152
        CHANNELS 3 Zrotation Xrotation Yrotation
        JOINT rFoot
        {
          OFFSET 0.73152 -45.1104 -5.12064
          CHANNELS 3 Zrotation Xrotation Yrotation
          End Site
          {
            OFFSET -1.1221 -3.69964 12.103
          }
        }
      }
    }
  }
  JOINT lButtock
  {
    OFFSET 8.77824 4.35084 1.2192
    CHANNELS 3 Zrotation Xrotation Yrotation
    JOINT lThigh
    {
      OFFSET 0 -1.70687 -2.19456
      CHANNELS 3 Zrotation Xrotation Yrotation
      JOINT lShin
      {
        OFFSET 0 -36.8199 0.73152
        CHANNELS 3 Zrotation Xrotation Yrotation
        JOINT lFoot
        {
          OFFSET -0.73152 -45.1104 -5.12064
          CHANNELS 3 Zrotation Xrotation Yrotation
          End Site
          {
            OFFSET 1.1221 -3.69964 12.103
          }
        }
      }
    }
  }
}
MOTION
Frames:	8
Frame Time:	0.00833333
5.8608 80.5444 -120.589 0.712481 -0.000289341 -0.0128808 -0.937504 -0.00467891 -0.0260744 -0.258765 -0.00545771 -0.0448331 1.6427e-014 -1.59028e-015 6.21201e-017 4.89321e-014 3.18055e-015 2.11209e-016 -0 0 0 -0 0 0 8.00011e-015 1.59183e-017 1.49089e-016 1.73353e-013 5.8393e-016 2.18663e-015 2.93108e-012 -8.70279e-013 -3.18055e-014 3.35706e-011 9.19155e-013 2.03556e-013 7.91811e-011 9.75106e-014 3.78486e-013 1.36734e-010 1.62208e-013 6.44857e-013 7.91883e-011 1.00983e-013 3.68944e-013 7.73091 5.47488 0.417314 7.91833e-011 9.8299e-014 3.78486e-013 2.90554 0.965183 0.102902 7.91935e-011 9.81996e-014 3.75305e-013 10.2786 0.731801 0.0259123 7.91835e-011 9.74045e-014 3.81667e-013 2.22167 -0.733487 -0.20892 8.0026e-015 1.28123e-017 -9.93923e-017 1.68254e-013 2.04997e-016 5.96354e-016 2.93411e-012 8.84989e-013 9.54166e-015 3.35731e-011 -8.382e-013 1.74931e-013 7.91944e-011 9.92768e-014 3.78486e-013 1.36767e-010 1.78111e-013 6.6235e-013 7.91883e-011 1.03368e-013 3.91208e-013 -7.73091 5.47488 -0.417314 7.91942e-011 9.94917e-014 3.75305e-013 -2.90554 0.965183 -0.102902 7.9186e-011 9.95911e-014 3.77691e-013 -10.2786 0.731801 -0.0259123 7.92002e-011 9.97899e-014 3.75305e-013 -2.22167 -0.733487 0.20892 -2.03217e-016 0 -3.88251e-019 -0.229316 -1.95204 -0.0134901 -0.00909748 -2.01822 -0.07534 -0.480902 3.96951 0.135128 2.03217e-016 0 3.88251e-019 -1.19847 -5.36329 0.104965 4.36216e-005 4.16075 -0.0211899 0.495423 1.2019 -0.0808346 
1.69085 78.3314 -123.135 4.79663 -6.24457 -23.7171 3.5124 11.6468 -0.729986 1.38124 -2.50125 0.106493 -1.50649 1.75779 -1.54154 -2.23689 0.824919 -3.11049 -0 0 0 -0 0 0 2.15294e-014 1.58204e-013 -2.94201e-014 18.4465 -7.41139 6.38668 -4.56454 -2.14734 7.04829 0.141682 -8.36842 -1.13135 -7.04219e-010 6.15375e-010 -2.42627e-010 -1.21112e-009 1.06963e-009 -4.36882e-010 -7.04213e-010 6.15377e-010 -2.42637e-010 7.73091 5.47488 0.417314 -7.04218e-010 6.15375e-010 -2.42629e-010 2.90554 0.965183 0.102902 -7.04208e-010 6.15375e-010 -2.42629e-010 10.2786 0.731801 0.0259123 -7.04218e-010 6.15375e-010 -2.42623e-010 2.22167 -0.733487 -0.20892 2.15562e-014 1.58201e-013 -2.9655e-014 -23.5499 6.73688 2.27756 9.44237 -6.3027 -11.9226 -0.0122263 -2.45388 0.343729 8.50319e-010 -1.47372e-009 -6.10263e-010 1.47677e-009 -2.54611e-009 -1.05021e-009 8.50313e-010 -1.47372e-009 -6.10251e-010 -7.73091 5.47488 -0.417314 8.50319e-010 -1.47372e-009 -6.10262e-010 -2.90554 0.965183 -0.102902 8.50311e-010 -1.47372e-009 -6.10264e-010 -10.2786 0.731801 -0.0259123 8.50323e-010 -1.47372e-009 -6.10269e-010 -2.22167 -0.733487 0.20892 -2.03217e-016 0 -3.88251e-019 -5.10226 -9.01605 0.648679 0.0117197 10.2691 0.100523 -0.884407 0.8634 -3.82999 2.03217e-016 0 3.88251e-019 2.12819 -14.7661 -0.375895 0.0430086 18.7081 -0.205668 0.264639 1.86885 -4.91277 
1.21816 78.4376 -122.412 4.23326 -9.45999 -49.3488 8.54542 23.965 -1.57941 3.13882 -5.14292 0.267516 -3.01338 3.6127 -3.18568 -4.48494 1.68619 -6.41734 -0 0 0 -0 0 0 3.74667e-014 3.37768e-013 -6.27911e-014 39.7911 -14.8842 13.5377 -8.80987 -4.30129 14.5156 -0.0829498 -17.1812 -2.40732 -1.59745e-009 1.31316e-009 -5.045e-010 -2.74821e-009 2.2828e-009 -9.09596e-010 -1.59745e-009 1.31316e-009 -5.04511e-010 7.73091 5.47488 0.417314 -1.59745e-009 1.31316e-009 -5.04506e-010 2.90554 0.965183 0.102902 -1.59744e-009 1.31316e-009 -5.04501e-010 10.2786 0.731801 0.0259123 -1.59745e-009 1.31316e-009 -5.04495e-010 2.22167 -0.733487 -0.20892 3.75211e-014 3.37765e-013 -6.30116e-014 -49.0369 13.8277 4.7721 16.624 -12.072 -24.9843 0.0070008 -5.05477 0.710198 1.69282e-009 -3.12604e-009 -1.29645e-009 2.94101e-009 -5.4009e-009 -2.23124e-009 1.69282e-009 -3.12604e-009 -1.29644e-009 -7.73091 5.47488 -0.417314 1.69282e-009 -3.12604e-009 -1.29645e-009 -2.90554 0.965183 -0.102902 1.69282e-009 -3.12604e-009 -1.29645e-009 -10.2786 0.731801 -0.0259123 1.69283e-009 -3.12603e-009 -1.29646e-009 -2.22167 -0.733487 0.20892 -2.03217e-016 0 -3.88251e-019 -10.0657 -16.5099 1.34785 -0.0540334 23.3125 0.309245 -1.78025 -2.42668 -8.00914 2.03217e-016 0 3.88251e-019 5.46573 -24.7173 -0.983801 0.209988 34.073 -0.456812 0.152757 2.61524 -10.0511 
1.2172 78.482 -121.189 1.79041 -6.63726 -71.8125 13.4322 34.9258 -2.5527 4.70108 -7.49266 0.412363 -4.23504 5.25808 -4.64201 -6.44309 2.4456 -9.3391 -0 0 0 -0 0 0 4.85881e-014 4.74581e-013 -8.85586e-014 60.4899 -21.0925 20.4222 -12.1413 -6.05291 21.2541 -0.653311 -25.064 -3.70743 -2.27102e-009 1.84593e-009 -7.28637e-010 -3.90684e-009 3.20856e-009 -1.31194e-009 -2.27101e-009 1.84593e-009 -7.28649e-010 7.73091 5.47488 0.417314 -2.27102e-009 1.84593e-009 -7.28645e-010 2.90554 0.965183 0.102902 -2.27101e-009 1.84593e-009 -7.28637e-010 10.2786 0.731801 0.0259123 -2.27102e-009 1.84593e-009 -7.28631e-010 2.22167 -0.733487 -0.20892 4.86635e-014 4.74578e-013 -8.87663e-014 -72.3403 20.0787 7.22685 20.7891 -15.6168 -37.1337 0.052269 -7.36057 1.0388 2.39257e-009 -4.42136e-009 -1.83155e-009 4.15677e-009 -7.63867e-009 -3.15196e-009 2.39256e-009 -4.42137e-009 -1.83154e-009 -7.73091 5.47488 -0.417314 2.39257e-009 -4.42137e-009 -1.83154e-009 -2.90554 0.965183 -0.102902 2.39256e-009 -4.42137e-009 -1.83155e-009 -10.2786 0.731801 -0.0259123 2.39257e-009 -4.42136e-009 -1.83156e-009 -2.22167 -0.733487 0.20892 -2.03217e-016 0 -3.88251e-019 -14.3211 -23.1316 2.11941 -0.209591 34.8426 0.545038 -2.97538 -5.23061 -11.8082 2.03217e-016 0 3.88251e-019 8.22623 -33.5629 -1.5595 0.53204 47.8004 -0.807105 0.136263 3.11966 -14.5909 
1.34439 78.3008 -120.293 0.773931 -1.45326 -86.5671 17.1911 42.5151 -3.45404 5.74668 -9.11272 0.513617 -4.94768 6.39466 -5.61193 -7.86572 2.97861 -11.2909 -0 0 0 -0 0 0 4.76699e-014 5.04516e-013 -9.53172e-014 75.8741 -25.2453 25.4564 -14.2551 -7.16219 26.0689 -1.31079 -30.6598 -4.77907 -2.39542e-009 1.96618e-009 -8.58432e-010 -4.11931e-009 3.41579e-009 -1.53834e-009 -2.39542e-009 1.96618e-009 -8.58444e-010 7.73091 5.47488 0.417314 -2.39543e-009 1.96618e-009 -8.58441e-010 2.90554 0.965183 0.102902 -2.39542e-009 1.96618e-009 -8.58432e-010 10.2786 0.731801 0.0259123 -2.39542e-009 1.96618e-009 -8.58425e-010 2.22167 -0.733487 -0.20892 4.77499e-014 5.04516e-013 -9.5516e-014 -88.9841 24.3499 9.21417 22.6823 -16.8171 -45.6756 0.0988087 -8.92971 1.26535 2.7354e-009 -4.82423e-009 -1.9889e-009 4.75132e-009 -8.33387e-009 -3.42192e-009 2.7354e-009 -4.82424e-009 -1.98889e-009 -7.73091 5.47488 -0.417314 2.7354e-009 -4.82423e-009 -1.98889e-009 -2.90554 0.965183 -0.102902 2.73539e-009 -4.82424e-009 -1.9889e-009 -10.2786 0.731801 -0.0259123 2.7354e-009 -4.82423e-009 -1.98891e-009 -2.22167 -0.733487 0.20892 -2.03217e-016 0 -3.88251e-019 -17.1414 -27.581 2.95436 -0.389218 42.5908 0.755573 -4.00065 -6.94806 -14.5842 2.03217e-016 0 3.88251e-019 10.0396 -39.6556 -1.81112 0.949505 57.4364 -1.21939 0.0705833 3.10642 -17.6189 
1.22787 78.2653 -119.465 0.758076 0.842466 -92.4326 18.9116 45.4004 -3.8905 6.0424 -9.70947 0.552723 -5.02495 6.81473 -5.89835 -8.62192 3.2363 -11.8976 -0 0 0 -0 0 0 2.39342e-014 3.61739e-013 -7.28383e-014 82.1575 -27.4496 27.1564 -15.0782 -7.59553 28.0738 -1.64867 -32.9243 -5.26208 -1.63931e-009 1.44292e-009 -8.51435e-010 -2.81466e-009 2.50189e-009 -1.50786e-009 -1.63931e-009 1.44292e-009 -8.51447e-010 7.73091 5.47488 0.417314 -1.63932e-009 1.44292e-009 -8.51443e-010 2.90554 0.965183 0.102902 -1.6393e-009 1.44292e-009 -8.51434e-010 10.2786 0.731801 0.0259123 -1.63931e-009 1.44293e-009 -8.51428e-010 2.22167 -0.733487 -0.20892 2.39923e-014 3.61748e-013 -7.30336e-014 -95.6845 25.9219 10.2615 23.1998 -16.8693 -48.7674 0.117967 -9.44779 1.34088 2.5983e-009 -3.83698e-009 -1.54486e-009 4.50953e-009 -6.62581e-009 -2.65528e-009 2.5983e-009 -3.83699e-009 -1.54485e-009 -7.73091 5.47488 -0.417314 2.5983e-009 -3.83698e-009 -1.54485e-009 -2.90554 0.965183 -0.102902 2.5983e-009 -3.83699e-009 -1.54486e-009 -10.2786 0.731801 -0.0259123 2.5983e-009 -3.83697e-009 -1.54487e-009 -2.22167 -0.733487 0.20892 -2.03217e-016 0 -3.88251e-019 -18.1017 -28.984 3.75188 -0.466029 45.04 0.835533 -4.39871 -7.31507 -15.8547 2.03217e-016 0 3.88251e-019 10.9271 -41.9415 -1.33001 1.20674 61.3954 -1.46485 -0.176398 2.41381 -18.5982 
1.08518 78.3581 -118.403 0.762156 0.41831 -92.199 18.9985 44.9336 -3.85039 5.80023 -9.57542 0.546741 -4.66817 6.72629 -5.69302 -8.92132 3.30164 -11.5412 -0 0 0 -0 0 0 -1.5816e-014 9.66974e-014 -2.96003e-014 81.4834 -28.4977 26.238 -15.0832 -7.62413 28.0589 -1.63152 -32.8275 -5.24113 -2.59578e-010 4.63161e-010 -7.46953e-010 -4.35533e-010 7.92671e-010 -1.29439e-009 -2.59578e-010 4.63166e-010 -7.46965e-010 7.73091 5.47488 0.417314 -2.59583e-010 4.63167e-010 -7.46959e-010 2.90554 0.965183 0.102902 -2.5957e-010 4.63168e-010 -7.46952e-010 10.2786 0.731801 0.0259123 -2.59577e-010 4.63167e-010 -7.46946e-010 2.22167 -0.733487 -0.20892 -1.57982e-014 9.67181e-014 -2.97959e-014 -95.1116 25.599 10.545 22.9989 -16.6394 -47.958 0.111437 -9.21626 1.30732 2.11746e-009 -1.86347e-009 -6.74713e-010 3.66876e-009 -3.21272e-009 -1.15418e-009 2.11745e-009 -1.86348e-009 -6.74695e-010 -7.73091 5.47488 -0.417314 2.11746e-009 -1.86347e-009 -6.74701e-010 -2.90554 0.965183 -0.102902 2.11745e-009 -1.86348e-009 -6.74708e-010 -10.2786 0.731801 -0.0259123 2.11746e-009 -1.86347e-009 -6.74715e-010 -2.22167 -0.733487 0.20892 -2.03217e-016 0 -3.88251e-019 -17.8285 -28.2143 4.47351 -0.429902 43.705 0.789933 -4.25907 -6.74417 -16.0352 2.03217e-016 0 3.88251e-019 11.1682 -41.4996 -0.307446 1.20026 61.2984 -1.45105 -0.537367 1.23576 -18.1178 
1.128 78.3919 -117.526 0.757263 -0.0363523 -89.2581 18.338 43.1331 -3.60324 5.36507 -9.15208 0.520915 -4.15646 6.45729 -5.27669 -9.03765 3.25426 -10.7711 -0 0 0 -0 0 0 -5.24323e-014 -1.8032e-013 1.77408e-014 77.8468 -28.894 24.18 -14.8144 -7.53893 27.3271 -1.49131 -32.0432 -5.06399 1.1909e-009 -5.93647e-010 -6.1102e-010 2.06541e-009 -1.05037e-009 -1.02465e-009 1.1909e-009 -5.93638e-010 -6.11032e-010 7.73091 5.47488 0.417314 1.1909e-009 -5.93637e-010 -6.11022e-010 2.90554 0.965183 0.102902 1.19091e-009 -5.93635e-010 -6.11019e-010 10.2786 0.731801 0.0259123 1.19091e-009 -5.93639e-010 -6.11013e-010 2.22167 -0.733487 -0.20892 -5.24574e-014 -1.80289e-013 1.75431e-014 -91.6332 24.5539 10.5252 22.4726 -16.2394 -45.5743 0.0962333 -8.7176 1.23503 1.46753e-009 2.79444e-010 2.49786e-010 2.53505e-009 4.92502e-010 4.39827e-010 1.46752e-009 2.79437e-010 2.49807e-010 -7.73091 5.47488 -0.417314 1.46753e-009 2.79443e-010 2.49795e-010 -2.90554 0.965183 -0.102902 1.46752e-009 2.79433e-010 2.49793e-010 -10.2786 0.731801 -0.0259123 1.46753e-009 2.79447e-010 2.49788e-010 -2.22167 -0.733487 0.20892 -2.03217e-016 0 -3.88251e-019 -17.1793 -26.5933 5.18823 -0.357046 40.8647 0.698321 -3.8812 -5.68686 -15.8014 2.03217e-016 0 3.88251e-019 10.8809 -39.8936 0.739165 1.07787 59.5018 -1.32452 -0.880001 -0.147856 -16.947 
